<svg width="28" height="32" viewBox="0 0 28 32" fill="none" xmlns="http://www.w3.org/2000/svg">
<g filter="url(#filter0_d)">
<path d="M0.585786 16.3345C-0.195262 15.5535 -0.195262 14.2871 0.585786 13.5061L13.3137 0.778156C14.0948 -0.00289279 15.3611 -0.00289279 16.1421 0.778156C16.9232 1.5592 16.9232 2.82553 16.1421 3.60658L3.41421 16.3345C2.63316 17.1156 1.36683 17.1156 0.585786 16.3345Z" transform="translate(1.63574)" fill="white"/>
<path d="M0.585973 0.585786C1.36702 -0.195262 2.63335 -0.195262 3.4144 0.585786L16.1423 13.3137C16.9234 14.0948 16.9234 15.3611 16.1423 16.1421C15.3613 16.9232 14.0949 16.9232 13.3139 16.1421L0.585973 3.41421C-0.195076 2.63316 -0.195076 1.36683 0.585973 0.585786Z" transform="translate(1.63574)" fill="white"/>
<path d="M0.93934 13.8596L5.63181 9.16716L7.75313 11.2885L3.06066 15.981C2.47487 16.5667 1.52513 16.5667 0.93934 15.981C0.353553 15.3952 0.353553 14.4454 0.93934 13.8596ZM8.46024 10.5814L6.33892 8.46005L8.46024 6.33873L10.5816 8.46005L8.46024 10.5814ZM7.75313 5.63163L5.63181 7.75295L0.939526 3.06066C0.35374 2.47487 0.35374 1.52513 0.939526 0.93934C1.52531 0.353553 2.47506 0.353553 3.06085 0.93934L7.75313 5.63163ZM11.2887 7.75295L9.16735 5.63163L13.6673 1.13171C14.253 0.545923 15.2028 0.545923 15.7886 1.13171C16.3744 1.7175 16.3744 2.66724 15.7886 3.25303L11.2887 7.75295ZM9.16735 11.2885L11.2887 9.16716L15.7888 13.6673C16.3746 14.253 16.3746 15.2028 15.7888 15.7886C15.203 16.3744 14.2532 16.3744 13.6674 15.7886L9.16735 11.2885Z" transform="translate(1.63574)" stroke="white"/>
</g>
<defs>
<filter id="filter0_d" x="0.635742" y="0" width="26.7281" height="31.9203" filterUnits="userSpaceOnUse" color-interpolation-filters="sRGB">
<feFlood flood-opacity="0" result="BackgroundImageFix"/>
<feColorMatrix in="SourceAlpha" type="matrix" values="0 0 0 0 0 0 0 0 0 0 0 0 0 0 0 0 0 0 255 0"/>
<feOffset dx="4" dy="10"/>
<feGaussianBlur stdDeviation="2.5"/>
<feColorMatrix type="matrix" values="0 0 0 0 0 0 0 0 0 0 0 0 0 0 0 0 0 0 0.15 0"/>
<feBlend mode="normal" in2="BackgroundImageFix" result="effect1_dropShadow"/>
<feBlend mode="normal" in="SourceGraphic" in2="effect1_dropShadow" result="shape"/>
</filter>
</defs>
</svg>
