<svg width="22" height="19" viewBox="0 0 22 19" fill="none" xmlns="http://www.w3.org/2000/svg">
<path d="M0 0V3H20C20 3 20 5.07682 20 0" transform="translate(1 14.5)" stroke="white" stroke-width="2"/>
<path d="M13.2071 0.707107C13.5976 0.316582 13.5976 -0.316582 13.2071 -0.707107L6.84315 -7.07107C6.45262 -7.46159 5.81946 -7.46159 5.42893 -7.07107C5.03841 -6.68054 5.03841 -6.04738 5.42893 -5.65685L11.0858 0L5.42893 5.65685C5.03841 6.04738 5.03841 6.68054 5.42893 7.07107C5.81946 7.46159 6.45262 7.46159 6.84315 7.07107L13.2071 0.707107ZM0 1H12.5V-1H0V1Z" transform="translate(11.5) rotate(90)" fill="white"/>
</svg>
