<svg width="103" height="100" viewBox="0 0 103 100" fill="none" xmlns="http://www.w3.org/2000/svg">
<path fill-rule="evenodd" clip-rule="evenodd" d="M60.6931 4.18822C34.4632 -6.01278 8.05679 3.0406 1.49672 24.6115C-5.16715 46.2992 11.0358 71.791 37.8781 81.3545C64.8346 90.801 91.7496 81.2376 97.8011 60.1874C103.738 39.2541 87.0371 14.2723 60.6931 4.18822Z" transform="translate(4 15)" fill="url(#paint0_linear)"/>
<circle cx="17.5" cy="17.5" r="17.5" fill="#F2F2F2"/>
<path d="M4.10883 8.4C5.13549 8.456 5.91483 8.736 6.44683 9.24C6.98816 9.73467 7.25883 10.3833 7.25883 11.186C7.25883 11.746 7.12349 12.2453 6.85283 12.684C6.58216 13.1133 6.18083 13.454 5.64883 13.706C5.11683 13.958 4.46816 14.084 3.70283 14.084C2.99349 14.084 2.32149 13.972 1.68683 13.748C1.06149 13.5147 0.557495 13.2067 0.174828 12.824L0.664828 12.026C0.991495 12.362 1.42549 12.6373 1.96683 12.852C2.50816 13.0573 3.08683 13.16 3.70283 13.16C4.50549 13.16 5.12616 12.9873 5.56483 12.642C6.00349 12.2873 6.22283 11.802 6.22283 11.186C6.22283 10.5793 6.00349 10.1033 5.56483 9.758C5.12616 9.41267 4.46349 9.24 3.57683 9.24H2.87683V8.498L5.59283 5.096H0.580828V4.2H6.88083V4.914L4.10883 8.4Z" transform="translate(13 9)" fill="#D6212A"/>
<path d="M21.8182 0H2.18182C0.979636 0 0 1.01025 0 2.25V33.75C0 34.992 0.979636 36 2.18182 36H21.8182C23.0225 36 24 34.992 24 33.75V2.25C24 1.01025 23.0225 0 21.8182 0ZM21.8182 29.25H21.7964V29.2725H2.16V4.5225H2.18182V4.5H21.8182V29.25Z" transform="translate(66 38) scale(-1 1)" fill="white"/>
<path d="M5.45454 0H1.09091C0.488727 0 -4.99379e-07 0.504 -4.99379e-07 1.125V5.625C-4.99379e-07 6.246 0.488727 6.75 1.09091 6.75H5.45454C6.05673 6.75 6.54545 6.246 6.54545 5.625V1.125C6.54545 0.504 6.05673 0 5.45454 0ZM4.36364 4.5H2.18182V2.25H4.36364V4.5Z" transform="translate(61.6582 47) scale(-1 1)" fill="white"/>
<path d="M5.45454 0H1.09091C0.488727 0 -4.99379e-07 0.504 -4.99379e-07 1.125V5.625C-4.99379e-07 6.246 0.488727 6.75 1.09091 6.75H5.45454C6.05673 6.75 6.54545 6.246 6.54545 5.625V1.125C6.54545 0.504 6.05673 0 5.45454 0ZM4.36364 4.5H2.18182V2.25H4.36364V4.5Z" transform="translate(52.9309 47) scale(-1 1)" fill="white"/>
<path d="M5.45454 0H1.09091C0.488727 0 -4.99379e-07 0.504 -4.99379e-07 1.125V5.625C-4.99379e-07 6.246 0.488727 6.75 1.09091 6.75H5.45454C6.05673 6.75 6.54545 6.246 6.54545 5.625V1.125C6.54545 0.504 6.05673 0 5.45454 0ZM4.36364 4.5H2.18182V2.25H4.36364V4.5Z" transform="translate(61.6582 56) scale(-1 1)" fill="white"/>
<path d="M2.18182 0H0V2.25H2.18182V0Z" transform="translate(52.9309 56) scale(-1 1)" fill="white"/>
<path d="M2.18182 0V2.25H-4.99379e-07V4.5H3.27273C3.87491 4.5 4.36364 3.996 4.36364 3.375V0H2.18182Z" transform="translate(50.7491 58.25) scale(-1 1)" fill="white"/>
<defs>
<linearGradient id="paint0_linear" x2="1" gradientUnits="userSpaceOnUse" gradientTransform="translate(99) scale(99 85) rotate(90)">
<stop stop-color="#D6212C"/>
<stop offset="1" stop-color="#A7117B"/>
</linearGradient>
</defs>
</svg>
