<svg width="103" height="100" viewBox="0 0 103 100" fill="none" xmlns="http://www.w3.org/2000/svg">
<path fill-rule="evenodd" clip-rule="evenodd" d="M60.6931 4.18822C34.4632 -6.01278 8.05679 3.0406 1.49672 24.6115C-5.16715 46.2992 11.0358 71.791 37.8781 81.3545C64.8346 90.801 91.7496 81.2376 97.8011 60.1874C103.738 39.2541 87.0371 14.2723 60.6931 4.18822Z" transform="translate(4 15)" fill="url(#paint0_linear)"/>
<circle cx="17.5" cy="17.5" r="17.5" fill="#F2F2F2"/>
<path d="M9.43007 11.424H7.47007V14H6.46207V11.424H0.93207V10.696L6.12607 4.2H7.24607L2.23407 10.528H6.49007V8.26H7.47007V10.528H9.43007V11.424Z" transform="translate(12 9)" fill="#D6212A"/>
<path d="M1.0335e-07 -1.05381e-07V17.3695C1.0335e-07 17.9816 0.506563 18.4783 1.13084 18.4783H12.816V-1.05381e-07H1.0335e-07Z" transform="translate(39.2617 56.5217)" fill="white"/>
<path d="M-2.97648e-07 -1.05381e-07V18.4783H11.6852C12.3094 18.4783 12.816 17.9816 12.816 17.3695V-1.05381e-07H-2.97648e-07Z" transform="translate(55.9225 56.5217)" fill="white"/>
<path d="M32.8692 6.65218H24.2696C24.6558 5.99941 24.8781 5.24231 24.8781 4.43481C24.8781 1.98927 22.8491 0 20.3548 0C19.0047 0 17.7918 0.583512 16.9623 1.50603C16.1329 0.583512 14.9199 0 13.5699 0C11.0756 0 9.04661 1.98927 9.04661 4.43481C9.04661 5.24231 9.2689 5.99941 9.65504 6.65218H1.13084C0.50636 6.65218 -6.97612e-09 7.14857 -6.97612e-09 7.7609V12.1957C-6.97612e-09 12.808 0.506292 13.3044 1.13084 13.3044H15.0776V8.86962H16.9623H18.9224V13.3044H32.8692C33.4936 13.3044 34 12.808 34 12.1957V7.7609C34 7.14857 33.4937 6.65218 32.8692 6.65218ZM15.8315 6.65218H15.0777H13.5699C12.3228 6.65218 11.3083 5.65755 11.3083 4.43481C11.3083 3.21207 12.3228 2.21744 13.5699 2.21744C14.8171 2.21744 15.8315 3.21207 15.8315 4.43481V6.65218ZM20.3548 6.65218H18.9224H18.0932V4.43481C18.0932 3.21207 19.1076 2.21744 20.3548 2.21744C21.6019 2.21744 22.6164 3.21207 22.6164 4.43481C22.6165 5.65755 21.602 6.65218 20.3548 6.65218Z" transform="translate(37 41)" fill="white"/>
<defs>
<linearGradient id="paint0_linear" x2="1" gradientUnits="userSpaceOnUse" gradientTransform="translate(99) scale(99 85) rotate(90)">
<stop stop-color="#D6212C"/>
<stop offset="1" stop-color="#A7117B"/>
</linearGradient>
</defs>
</svg>
