<svg width="85" height="16" viewBox="0 0 85 16" fill="none" xmlns="http://www.w3.org/2000/svg">
<path d="M1.95217 14.6217H0.42209C0.158284 14.6217 0 14.568 0 14.1917V1.12888C0 0.698833 0.263806 1.28165e-08 1.16075 1.28165e-08H10.9743C11.8713 1.28165e-08 12.1351 0.698833 12.1351 1.12888V14.1917C12.1351 14.568 12.0296 14.6217 11.713 14.6217H10.2357C9.91911 14.6217 9.81359 14.568 9.81359 14.1917V2.0965H2.37426V14.1917C2.37426 14.568 2.21597 14.6217 1.95217 14.6217Z" transform="translate(0 0.376282)" fill="white"/>
<path d="M12.2406 6.18198C12.2406 7.95594 11.2909 8.33224 10.1829 8.33224H2.37426C2.37426 11.8264 4.37918 13.1166 6.70068 13.1166C7.91419 13.1166 9.18045 12.7403 9.91911 12.3102C10.1302 12.1489 10.2884 12.2027 10.4467 12.4715L11.0271 13.6541C11.1854 13.9229 11.1326 14.0842 10.8688 14.1917C9.54978 14.998 7.96694 15.213 6.54239 15.213C2.47978 15.213 4.02536e-07 12.9015 4.02536e-07 7.68716C4.02536e-07 2.79533 2.69082 -8.01031e-10 6.33135 -8.01031e-10C10.4467 0.0537564 12.2406 2.58031 12.2406 6.18198ZM6.33135 2.0965C3.90433 2.0965 2.63806 4.13924 2.47978 6.45076H10.0246C10.0246 4.08548 9.23322 2.0965 6.33135 2.0965Z" transform="translate(15.1425)" fill="white"/>
<path d="M18.0443 14.6217H1.26627C0.474852 14.6217 0 14.0842 0 13.1165V0.483807C0 0.0537563 0.158284 0 0.527612 0H1.84664C2.26873 0 2.37426 0.0537563 2.37426 0.483807V12.6327H8.54732V0.483807C8.54732 0.0537563 8.65284 0 9.07493 0H10.3412C10.7633 0 10.8688 0.0537563 10.8688 0.483807V12.6327H16.9891V0.483807C16.9891 0.0537563 17.1474 0 17.5167 0H18.8358C19.1523 0 19.3106 0.0537563 19.3106 0.483807V13.1165C19.3106 14.0842 18.8885 14.6217 18.0443 14.6217Z" transform="translate(30.3905 0.376282)" fill="white"/>
<path d="M6.48963 14.6217H5.1706C4.80127 14.6217 4.69575 14.5142 4.69575 14.1379V2.0965H0.47485C0.0527604 2.0965 -1.61015e-06 1.93523 -1.61015e-06 1.61269V0.537564C-1.61015e-06 0.215025 0.105522 1.28165e-08 0.47485 1.28165e-08H11.4492C11.8713 1.28165e-08 11.924 0.215025 11.924 0.537564V1.61269C11.924 1.93523 11.8713 2.0965 11.4492 2.0965H7.01724V14.1379C6.96448 14.5142 6.85896 14.6217 6.48963 14.6217Z" transform="translate(51.8115 0.376282)" fill="white"/>
<path d="M11.2909 14.2992C9.6553 15.0518 7.65038 15.2668 5.8565 15.2668C1.16075 15.2668 0 13.1165 0 10.6438C0 8.06345 1.58284 5.69817 5.96202 5.69817H9.28598V5.0531C9.28598 3.27914 8.75836 2.15025 6.01478 2.15025C4.74851 2.15025 3.11291 2.41904 2.21597 2.68782C1.8994 2.79533 1.74112 2.79533 1.68836 2.47279L1.37179 1.29015C1.26627 1.07513 1.31903 0.913858 1.6356 0.806345C3.00739 0.215025 4.95956 0 6.48963 0C10.1302 0 11.713 1.7202 11.713 4.83807V13.5466C11.713 13.9229 11.5547 14.1917 11.2909 14.2992ZM6.12031 7.74091C4.80128 7.74091 2.42702 7.95594 2.42702 10.59C2.42702 12.6327 3.95709 13.2241 5.90926 13.2241C6.54239 13.2241 8.17799 13.1165 9.33874 12.6865V7.74091H6.12031Z" transform="translate(63.8411 0.0537415)" fill="white"/>
<path d="M4.27366 2.31152C4.27366 3.44041 3.37672 4.35427 2.32149 4.35427C1.21351 4.35427 0.36933 3.44041 0.36933 2.31152C0.36933 1.18264 1.26627 0.322538 2.32149 0.322538C3.37672 0.268782 4.27366 1.18264 4.27366 2.31152ZM4.53747 2.31152C4.53747 1.02137 3.535 1.60206e-09 2.26873 1.60206e-09C1.00246 1.60206e-09 3.22029e-06 1.02137 3.22029e-06 2.31152C3.22029e-06 3.60168 1.00246 4.62305 2.26873 4.62305C3.535 4.62305 4.53747 3.60168 4.53747 2.31152ZM3.42948 1.7202C3.42948 1.50518 3.32396 1.29015 3.16568 1.18264C2.95463 1.07513 2.74358 1.07513 2.53254 1.07513H1.42456V3.65543H1.74112V2.41904H2.32149L3.06015 3.60168H3.42948L2.69082 2.41904C3.06015 2.41904 3.42948 2.20401 3.42948 1.7202ZM3.11291 1.7202C3.11291 2.25777 2.5853 2.20401 2.21597 2.20401H1.74112V1.2364H2.47978C2.79635 1.2364 3.11291 1.29015 3.11291 1.7202Z" transform="translate(80.2498 0.161255)" fill="white"/>
</svg>
