<svg width="103" height="100" viewBox="0 0 103 100" fill="none" xmlns="http://www.w3.org/2000/svg">
<path fill-rule="evenodd" clip-rule="evenodd" d="M60.6931 4.18822C34.4632 -6.01278 8.05679 3.0406 1.49672 24.6115C-5.16715 46.2992 11.0358 71.791 37.8781 81.3545C64.8346 90.801 91.7496 81.2376 97.8011 60.1874C103.738 39.2541 87.0371 14.2723 60.6931 4.18822Z" transform="translate(4 15)" fill="white"/>
<path d="M53 12.5118C53 9.07467 51.201 5.87669 47.9345 3.50719C44.8165 1.24556 40.6966 1.35865e-07 36.3334 1.35865e-07C31.9701 0.000202501 27.8499 1.24556 24.7322 3.50719C23.8778 4.12704 23.1263 4.80456 22.4787 5.5272C20.6425 5.01765 18.682 4.74749 16.6668 4.74749C12.3036 4.74749 8.18366 5.99305 5.06573 8.25468C1.79899 10.6242 0 13.8218 0 17.2589C0 20.6817 1.82658 23.9093 5.05184 26.2529L3.53758 32.1C3.38454 32.6903 3.59839 33.3152 4.07985 33.6865C4.34928 33.8942 4.67327 34 4.99928 34C5.25542 34 5.51276 33.9346 5.74514 33.8019L13.2607 29.5103C14.3772 29.6831 15.5204 29.7706 16.6666 29.7706C21.0299 29.7706 25.15 28.5252 28.2678 26.2638C29.1216 25.6445 29.8727 24.9678 30.5186 24.2454C32.3557 24.7543 34.3176 25.0233 36.3332 25.0233C37.4784 25.0233 38.6213 24.9359 39.7391 24.763L47.2551 29.0546C47.4874 29.1874 47.7448 29.2527 48.0009 29.2527C48.3265 29.2527 48.6509 29.1471 48.9203 28.939C49.402 28.5679 49.6155 27.9428 49.4624 27.3525L47.9482 21.5056C51.1734 19.1618 53 15.9342 53 12.5118ZM45.4198 19.557C44.8582 19.9077 44.5888 20.5852 44.7555 21.2285L45.6393 24.6404L40.7657 21.8577C40.5369 21.7269 40.2796 21.6594 40.0196 21.6594C39.9304 21.6594 39.8406 21.6673 39.7518 21.6834C38.6377 21.885 37.4875 21.9874 36.3334 21.9874C28.8086 21.9874 22.687 17.7365 22.687 12.5116C22.687 7.28657 28.8086 3.03548 36.3334 3.03528C43.858 3.03528 49.9797 7.28636 49.9797 12.5116C49.9795 15.1794 48.3175 17.7474 45.4198 19.557Z" transform="translate(27 41)" fill="#D6212A"/>
<path d="M1.7559 1.60568e-07C0.787739 1.60568e-07 -3.9329e-07 0.791653 -3.9329e-07 1.76463C-3.9329e-07 2.7376 0.787739 3.52925 1.7559 3.52925C2.72446 3.52925 3.5122 2.7376 3.5122 1.76463C3.5122 0.791653 2.72446 1.60568e-07 1.7559 1.60568e-07Z" transform="translate(54.1234 52.1245)" fill="#D6212A"/>
<path d="M1.7561 1.60568e-07C0.787739 1.60568e-07 1.42568e-06 0.791653 1.42568e-06 1.76463C1.42568e-06 2.7376 0.787739 3.52925 1.7561 3.52925C2.72446 3.52925 3.5122 2.7376 3.5122 1.76463C3.512 0.791653 2.72426 1.60568e-07 1.7561 1.60568e-07Z" transform="translate(59.0927 52.1245)" fill="#D6212A"/>
<path d="M1.7563 1.60568e-07C0.787941 1.60568e-07 3.9329e-07 0.791653 3.9329e-07 1.76463C3.9329e-07 2.7378 0.787739 3.52945 1.7563 3.52945C2.72447 3.52945 3.512 2.7378 3.512 1.76463C3.512 0.791653 2.72447 1.60568e-07 1.7563 1.60568e-07Z" transform="translate(64.0616 52.1245)" fill="#D6212A"/>
<path d="M1.7561 1.60568e-07C0.787738 1.60568e-07 5.65355e-07 0.791653 5.65355e-07 1.76463C5.65355e-07 2.7378 0.787738 3.52945 1.7561 3.52945C2.72426 3.52945 3.5118 2.7378 3.5118 1.76463C3.5118 0.791653 2.72426 1.60568e-07 1.7561 1.60568e-07Z" transform="translate(69.0311 52.1245)" fill="#D6212A"/>
<circle cx="17.5" cy="17.5" r="17.5" transform="translate(-0.000152588)" fill="#F2F2F2"/>
<path d="M7.44148 13.104V14H0.567484V13.286L4.64148 9.296C5.15482 8.792 5.50015 8.358 5.67748 7.994C5.86415 7.62067 5.95748 7.24733 5.95748 6.874C5.95748 6.29533 5.75682 5.84733 5.35548 5.53C4.96348 5.20333 4.39882 5.04 3.66148 5.04C2.51348 5.04 1.62215 5.404 0.987484 6.132L0.273484 5.516C0.656151 5.068 1.14148 4.72267 1.72948 4.48C2.32682 4.23733 2.99882 4.116 3.74548 4.116C4.74415 4.116 5.53282 4.354 6.11148 4.83C6.69948 5.29667 6.99348 5.94067 6.99348 6.762C6.99348 7.266 6.88148 7.75133 6.65748 8.218C6.43348 8.68467 6.00882 9.22133 5.38348 9.828L2.05148 13.104H7.44148Z" transform="translate(12.9998 9)" fill="#D6212A"/>
</svg>
