<svg width="68" height="68" viewBox="0 0 68 68" fill="none" xmlns="http://www.w3.org/2000/svg">
<circle cx="34" cy="34" r="34" fill="#F2F2F2"/>
<path d="M1.26969 2.51371C1.97093 2.51371 2.53939 1.951 2.53939 1.25686C2.53939 0.562714 1.97093 0 1.26969 0C0.568461 0 0 0.562714 0 1.25686C0 1.951 0.568461 2.51371 1.26969 2.51371Z" transform="translate(34.1533 33.1273)" fill="url(#paint0_linear)"/>
<path d="M20.4141 0C17.9013 0 15.4774 0.544931 13.3286 1.58206C7.66385 4.21003 3.73046 9.86149 3.73046 16.427V18.598V19.1429L0.347567 25.5678C-0.522573 27.1938 0.303172 28.5122 2.13224 28.5122H3.73046V28.5561V31.3159V34.5767C3.73046 36.4752 5.28428 38.0133 7.20214 38.0133L11.9968 37.2926V42.0388V42.0827C11.9968 42.6716 12.5473 43.0759 13.1866 42.988L30.4207 39.9557C31.06 39.8239 31.6105 39.235 31.6105 38.5495V37.776V37.1871V28.5034C34.9046 25.5151 37 21.2171 37 16.427C36.9645 7.37414 29.5594 0 20.4141 0ZM28.6182 24.4691C24.8092 28.2397 18.9934 28.8286 14.5539 26.2621L14.5184 26.227C12.787 27.5454 10.9047 27.7475 9.56395 27.5454C9.12888 27.4663 9.04897 26.8862 9.44852 26.6928C10.6294 26.1127 11.4108 24.9438 11.8458 24.0121L11.7659 23.933C7.71712 19.4241 7.87694 12.5422 12.2365 8.21791C16.7559 3.70904 24.0988 3.70904 28.6182 8.21791C33.1288 12.6828 33.1288 19.9603 28.6182 24.4691Z" transform="translate(15 13)" fill="url(#paint1_linear)"/>
<path d="M1.22572 9.21987C1.77621 9.21987 2.23792 8.78041 2.2468 8.23548L2.45102 1.24807C2.46877 0.562509 1.91828 2.68225e-07 1.22572 2.68225e-07C0.533157 2.68225e-07 -0.0173404 0.562509 0.000417572 1.24807L0.195755 8.23548C0.213513 8.7892 0.666341 9.21987 1.22572 9.21987Z" transform="translate(34.2061 23.0021)" fill="url(#paint2_linear)"/>
<defs>
<linearGradient id="paint0_linear" x2="1" gradientUnits="userSpaceOnUse" gradientTransform="translate(2.53939) scale(2.53939 2.51371) rotate(90)">
<stop stop-color="#D6212C"/>
<stop offset="1" stop-color="#A7117B"/>
</linearGradient>
<linearGradient id="paint1_linear" x2="1" gradientUnits="userSpaceOnUse" gradientTransform="translate(37) scale(37 43) rotate(90)">
<stop stop-color="#D6212C"/>
<stop offset="1" stop-color="#A7117B"/>
</linearGradient>
<linearGradient id="paint2_linear" x2="1" gradientUnits="userSpaceOnUse" gradientTransform="translate(2.45143) scale(2.45143 9.21988) rotate(90)">
<stop stop-color="#D6212C"/>
<stop offset="1" stop-color="#A7117B"/>
</linearGradient>
</defs>
</svg>
