<svg width="68" height="68" viewBox="0 0 68 68" fill="none" xmlns="http://www.w3.org/2000/svg">
<circle cx="34" cy="34" r="34" fill="#F2F2F2"/>
<path d="M2.04849 0.343211C1.70521 0.00807579 1.18921 -0.0920736 0.740729 0.0891669C0.292365 0.270526 -1.33168e-07 0.697879 -1.33168e-07 1.17199V18.4693C-1.33168e-07 19.1165 0.537333 19.6412 1.2 19.6412H6.18631C6.84898 19.6412 7.38631 19.1165 7.38631 18.4693V6.04181C7.38631 5.73094 7.25989 5.43298 7.03492 5.21303L2.04849 0.343211Z" transform="translate(36.5457 30.3588)" fill="url(#paint0_linear)"/>
<path d="M6.64546 0.0891669C6.19698 -0.0920736 5.68086 0.00807579 5.33771 0.343211L0.351394 5.21315C0.126424 5.43298 -3.18123e-07 5.73106 -3.18123e-07 6.04193V18.4692C-3.18123e-07 19.1163 0.537334 19.6411 1.2 19.6411H6.18631C6.84898 19.6411 7.38631 19.1163 7.38631 18.4692V1.17199C7.38619 0.697879 7.09383 0.270526 6.64546 0.0891669Z" transform="translate(26.5729 30.3588)" fill="url(#paint1_linear)"/>
<path d="M2.04849 0.343211C1.70521 0.00807579 1.18921 -0.0920736 0.740728 0.0891669C0.292364 0.270526 2.58937e-08 0.697879 2.58937e-08 1.17199V18.4693C2.58937e-08 19.1165 0.537334 19.6412 1.2 19.6412H6.18631C6.84898 19.6412 7.38631 19.1165 7.38631 18.4693V6.04193C7.38631 5.73106 7.25989 5.4331 7.03492 5.21315L2.04849 0.343211Z" transform="translate(16.6001 30.3588)" fill="url(#paint2_linear)"/>
<path d="M35.9865 13.1785L35.2158 8.19281C35.1167 7.55297 34.5059 7.11306 33.8501 7.20895C33.1948 7.30555 32.7436 7.90278 32.8427 8.54275L33.1275 10.385L19.7028 0.244982C19.2545 -0.0935858 18.6254 -0.0798535 18.1931 0.277656L9.40153 7.54882L2.04855 0.367625C1.57982 -0.0899158 0.820183 -0.0899158 0.351455 0.367625C-0.117152 0.825284 -0.117152 1.56741 0.351455 2.02507L8.48553 9.96899C8.92698 10.4001 9.63317 10.4285 10.1097 10.0346L19.0028 2.67936L31.5589 12.1633L29.6011 12.1524C28.9374 12.1499 28.3979 12.6704 28.3942 13.3176C28.3904 13.9649 28.9246 14.4926 29.5873 14.4963L34.7931 14.5253C34.7954 14.5253 34.7977 14.5253 34.8 14.5253C35.1481 14.5253 35.4794 14.3776 35.7074 14.1204C35.937 13.8613 36.0389 13.5172 35.9865 13.1785Z" transform="translate(16 19)" fill="url(#paint3_linear)"/>
<defs>
<linearGradient id="paint0_linear" x2="1" gradientUnits="userSpaceOnUse" gradientTransform="translate(7.38631) scale(7.38631 19.6412) rotate(90)">
<stop stop-color="#D6212C"/>
<stop offset="1" stop-color="#A7117B"/>
</linearGradient>
<linearGradient id="paint1_linear" x2="1" gradientUnits="userSpaceOnUse" gradientTransform="translate(7.38631) scale(7.38631 19.6411) rotate(90)">
<stop stop-color="#D6212C"/>
<stop offset="1" stop-color="#A7117B"/>
</linearGradient>
<linearGradient id="paint2_linear" x2="1" gradientUnits="userSpaceOnUse" gradientTransform="translate(7.38631) scale(7.38631 19.6412) rotate(90)">
<stop stop-color="#D6212C"/>
<stop offset="1" stop-color="#A7117B"/>
</linearGradient>
<linearGradient id="paint3_linear" x2="1" gradientUnits="userSpaceOnUse" gradientTransform="translate(36) scale(36 14.5253) rotate(90)">
<stop stop-color="#D6212C"/>
<stop offset="1" stop-color="#A7117B"/>
</linearGradient>
</defs>
</svg>
