<svg width="68" height="68" viewBox="0 0 68 68" fill="none" xmlns="http://www.w3.org/2000/svg">
<circle cx="34" cy="34" r="34" fill="#F2F2F2"/>
<path d="M2.23277 11.1124L5.63203 7.64077L9.03115 11.1124C9.28654 11.3731 9.62116 11.5035 9.95593 11.5035C10.2907 11.5035 10.6253 11.3731 10.8807 11.1124C11.3915 10.5908 11.3915 9.74499 10.8807 9.22334L7.48171 5.75184L10.8808 2.28034C11.3916 1.7587 11.3916 0.91292 10.8808 0.391272C10.3699 -0.130236 9.54206 -0.130236 9.03115 0.391272L5.63203 3.86277L2.23277 0.391131C1.72186 -0.130377 0.89399 -0.130377 0.383079 0.391131C-0.127693 0.912779 -0.127693 1.75855 0.383079 2.2802L3.7822 5.7517L0.383218 9.22334C-0.127555 9.74499 -0.127555 10.5908 0.383218 11.1124C0.638604 11.3731 0.973229 11.5035 1.30799 11.5035C1.64276 11.5035 1.97738 11.3731 2.23277 11.1124V11.1124Z" transform="translate(16 15)" fill="url(#paint0_linear)"/>
<path d="M10.8808 0.39113C10.3699 -0.130377 9.54206 -0.130377 9.03115 0.39113L5.63203 3.86263L2.23277 0.39113C1.72186 -0.130377 0.893991 -0.130377 0.38308 0.39113C-0.127693 0.91292 -0.127693 1.75855 0.38308 2.2802L3.78234 5.7517L0.38308 9.22334C-0.127693 9.74499 -0.127693 10.5908 0.38308 11.1124C0.638466 11.3731 0.973092 11.5035 1.30786 11.5035C1.64262 11.5035 1.97724 11.3731 2.23263 11.1124L5.63189 7.64077L9.03101 11.1123C9.2864 11.373 9.62102 11.5034 9.95579 11.5034C10.2906 11.5034 10.6252 11.373 10.8806 11.1123C11.3913 10.5905 11.3913 9.74485 10.8806 9.2232L7.48144 5.7517L10.8806 2.2802C11.3916 1.75855 11.3916 0.912638 10.8808 0.39113V0.39113Z" transform="translate(33.296 41.4965)" fill="url(#paint1_linear)"/>
<path d="M24.0615 5.01023L18.7872 0.327661C18.242 -0.156485 17.416 -0.0971295 16.9422 0.459483C16.4683 1.01624 16.5261 1.85976 17.0713 2.34376L19.8684 4.82709C11.6126 5.92988 6.72439 10.336 4.00694 14.0603C1.49643 17.5009 0.396194 20.8861 4.63413e-08 22.3784C0.261046 22.3431 0.526648 22.3229 0.796943 22.3229C1.44521 22.3229 2.06932 22.4293 2.65491 22.624C3.09142 21.1541 4.11255 18.3578 6.16723 15.5707C9.56857 10.9567 14.2936 8.23952 20.2378 7.46677L17.6315 10.5288C17.1575 11.0856 17.2154 11.9291 17.7605 12.4131C18.0082 12.6331 18.3138 12.7408 18.6179 12.7408C18.9835 12.7408 19.347 12.5851 19.6055 12.2813L24.1905 6.89451C24.6645 6.33776 24.6067 5.49424 24.0615 5.01023V5.01023Z" transform="translate(20.2172 18.1476)" fill="url(#paint2_linear)"/>
<path d="M3.86462 1.54892e-07C1.73373 1.54892e-07 -4.63413e-08 1.7705 -4.63413e-08 3.9469C-4.63413e-08 6.1233 1.73359 7.89395 3.86462 7.89395C5.99564 7.89395 7.72937 6.1233 7.72937 3.9469C7.72937 1.7705 5.99564 1.54892e-07 3.86462 1.54892e-07V1.54892e-07Z" transform="translate(17.1497 42.6704)" fill="url(#paint3_linear)"/>
<path d="M3.86476 -2.15128e-08C1.73373 -2.15128e-08 3.70731e-07 1.7705 3.70731e-07 3.9469C3.70731e-07 6.12331 1.73359 7.89395 3.86476 7.89395C5.99564 7.89395 7.72937 6.12345 7.72937 3.9469C7.72937 1.77064 5.99578 -2.15128e-08 3.86476 -2.15128e-08Z" transform="translate(49.2706 19.9592)" fill="url(#paint4_linear)"/>
<defs>
<linearGradient id="paint0_linear" x2="1" gradientUnits="userSpaceOnUse" gradientTransform="translate(11.2639) scale(11.2639 11.5035) rotate(90)">
<stop stop-color="#D6212C"/>
<stop offset="1" stop-color="#A7117B"/>
</linearGradient>
<linearGradient id="paint1_linear" x2="1" gradientUnits="userSpaceOnUse" gradientTransform="translate(11.2639) scale(11.2639 11.5035) rotate(90)">
<stop stop-color="#D6212C"/>
<stop offset="1" stop-color="#A7117B"/>
</linearGradient>
<linearGradient id="paint2_linear" x2="1" gradientUnits="userSpaceOnUse" gradientTransform="translate(24.5114) scale(24.5114 22.624) rotate(90)">
<stop stop-color="#D6212C"/>
<stop offset="1" stop-color="#A7117B"/>
</linearGradient>
<linearGradient id="paint3_linear" x2="1" gradientUnits="userSpaceOnUse" gradientTransform="translate(7.72937) scale(7.72937 7.89395) rotate(90)">
<stop stop-color="#D6212C"/>
<stop offset="1" stop-color="#A7117B"/>
</linearGradient>
<linearGradient id="paint4_linear" x2="1" gradientUnits="userSpaceOnUse" gradientTransform="translate(7.72937) scale(7.72937 7.89395) rotate(90)">
<stop stop-color="#D6212C"/>
<stop offset="1" stop-color="#A7117B"/>
</linearGradient>
</defs>
</svg>
