<svg width="68" height="68" viewBox="0 0 68 68" fill="none" xmlns="http://www.w3.org/2000/svg">
<circle cx="34" cy="34" r="34" fill="#F2F2F2"/>
<path d="M0.330882 0.330411C-0.110294 0.770957 -0.110294 1.48562 0.330882 1.91638L10.7524 12.3231L11.6446 11.4322L12.3407 10.7371L1.92892 0.330411C1.48774 -0.110136 0.772059 -0.110136 0.330882 0.330411Z" transform="translate(39.4142 39.4408)" fill="url(#paint0_linear)"/>
<path d="M48 23.9951V21.7532C48 20.9211 47.3922 20.1966 46.5686 20.0596L42.098 19.3155C41.6569 17.6023 40.9804 15.9869 40.098 14.4891L42.7255 10.7983C43.2059 10.113 43.1274 9.18295 42.5392 8.59555L40.9608 7.01938L39.3824 5.4432C38.7941 4.8558 37.8627 4.77748 37.1765 5.26698L33.4804 7.89068C31.9804 6.9998 30.3627 6.34387 28.6471 5.89353L27.8922 1.42933C27.7549 0.597185 27.0392 0 26.1961 0H23.951H21.7059C20.902 0.0391597 20.1863 0.646135 20.049 1.4587L19.3039 5.9229C17.5882 6.36345 15.9706 7.03896 14.4706 7.92005L10.7745 5.29635C10.0882 4.81664 9.15686 4.89496 8.56863 5.48236L7 7.07812L5.42157 8.65429C4.83333 9.24169 4.7549 10.1717 5.2451 10.857L7.87255 14.5478C6.96078 16.0653 6.27451 17.7198 5.85294 19.4917L1.43137 20.2456C0.607843 20.3826 -5.84353e-10 21.0973 -5.84353e-10 21.9392V24.1811V26.423C-5.84353e-10 27.2551 0.607843 27.9796 1.43137 28.1167L5.94118 28.8803C6.38235 30.5935 7.09804 32.2089 7.96078 33.6773L5.31373 37.3094C4.83333 37.9947 4.91176 38.9247 5.5 39.5121L7.07843 41.0883L8.65686 42.6645C9.2451 43.2519 10.1765 43.3302 10.8627 42.8407L14.5784 40.1974C16.0784 41.0687 17.6961 41.7247 19.4118 42.1554L20.1667 46.5707C20.3137 47.4028 21.0196 48 21.8627 48H24.1078H26.3529C27.1863 48 27.9118 47.393 28.049 46.5707L28.8137 42.0673C29.2059 41.9694 29.5882 41.8519 29.9608 41.7247C30.0588 41.6953 30.1667 41.6561 30.2647 41.617C30.5784 41.5093 30.8824 41.3918 31.1863 41.2645C31.2549 41.2352 31.3235 41.2058 31.3922 41.1764C31.7549 41.0198 32.1078 40.8534 32.4608 40.6771C32.4706 40.6673 32.4804 40.6673 32.4902 40.6576C32.8431 40.4813 33.1961 40.2855 33.5294 40.0897C33.7451 39.9625 33.9608 39.8254 34.1667 39.6884L28.402 33.9319C27.3725 32.9039 25.9412 32.4047 24.4804 32.5026C22.0098 32.669 19.4804 31.8173 17.598 29.9278C15.3137 27.6467 14.5392 24.4161 15.2745 21.4889C15.3235 21.2735 15.598 21.205 15.7451 21.3616L19.3431 24.9545C20.4118 26.0216 22.1765 26.0216 23.2451 24.9447L24.8824 23.3098C25.9608 22.2329 25.9608 20.4805 24.8922 19.4134L21.1078 15.6345C20.9608 15.4877 21.0196 15.2331 21.2157 15.1646C24.2843 14.1856 27.7843 14.9003 30.2157 17.3282C32.1961 19.3057 33.0392 21.9882 32.7549 24.5727C32.5882 26.1097 33.0882 27.6467 34.1863 28.7432L39.6471 34.1962C39.8235 33.9221 39.9902 33.648 40.1569 33.3739C40.3431 33.0508 40.5196 32.7277 40.6863 32.3949C40.7353 32.297 40.7843 32.1991 40.8333 32.1012C40.9412 31.876 41.0392 31.6508 41.1471 31.4159C41.2255 31.2396 41.3039 31.0536 41.3725 30.8774C41.4216 30.7599 41.4608 30.6327 41.5098 30.5054C41.6078 30.2509 41.6961 29.9963 41.7843 29.732C41.8922 29.3796 42 29.0369 42.098 28.6845L46.5686 27.9307C47.402 27.7936 48 27.0789 48 26.237V23.9951Z" transform="translate(10 10)" fill="url(#paint1_linear)"/>
<defs>
<linearGradient id="paint0_linear" x2="1" gradientUnits="userSpaceOnUse" gradientTransform="translate(12.3407) scale(12.3407 12.3231) rotate(90)">
<stop stop-color="#D6212C"/>
<stop offset="1" stop-color="#A7117B"/>
</linearGradient>
<linearGradient id="paint1_linear" x2="1" gradientUnits="userSpaceOnUse" gradientTransform="translate(48) scale(48) rotate(90)">
<stop stop-color="#D6212C"/>
<stop offset="1" stop-color="#A7117B"/>
</linearGradient>
</defs>
</svg>
