<svg width="68" height="68" viewBox="0 0 68 68" fill="none" xmlns="http://www.w3.org/2000/svg">
<circle cx="34" cy="34" r="34" fill="#F2F2F2"/>
<path d="M34.6553 0.359885C34.4103 0.107606 34.0691 -0.0226218 33.7226 0.00323132L28.2597 0.41087C27.604 0.45981 27.1113 1.04181 27.1591 1.71098C27.207 2.38016 27.7777 2.88063 28.4333 2.83385L30.7032 2.66442L22.7062 10.835L13.4059 2.7985C12.9332 2.3899 12.2326 2.4196 11.7947 2.86644L0.348674 14.5459C-0.116225 15.0203 -0.116225 15.7895 0.348674 16.2639C0.581182 16.501 0.885812 16.6197 1.19056 16.6197C1.49531 16.6197 1.79982 16.5012 2.03233 16.2639L12.7034 5.37516L22.0044 13.4121C22.4772 13.821 23.1782 13.7909 23.616 13.3436L32.3553 4.41462L32.1747 6.63908C32.1204 7.30765 32.6077 7.89446 33.2629 7.94989C33.2964 7.95278 33.3295 7.9541 33.3625 7.9541C33.9755 7.95398 34.4962 7.47395 34.5477 6.83953L34.996 1.31489C35.0246 0.961121 34.9003 0.612284 34.6553 0.359885Z" transform="translate(16 17)" fill="url(#paint0_linear)"/>
<path d="M6.59284 0.0923815C6.1481 -0.0954448 5.63594 0.00844829 5.29537 0.355722L0.348703 5.40334C0.125505 5.63121 -1.4745e-07 5.94013 -1.4745e-07 6.26239V19.595C-1.4745e-07 20.2659 0.533013 20.8098 1.19047 20.8098H6.13714C6.79459 20.8098 7.32761 20.2659 7.32761 19.595V1.21465C7.32773 0.723318 7.03759 0.280448 6.59284 0.0923815Z" transform="translate(20.0258 31.1902)" fill="url(#paint1_linear)"/>
<path d="M2.03236 0.355749C1.6919 0.00835449 1.17998 -0.0954183 0.734882 0.092408C0.290134 0.280475 -3.81213e-07 0.723345 -3.81213e-07 1.2148V19.5951C-3.81213e-07 20.2659 0.533013 20.8098 1.19047 20.8098H6.13725C6.79471 20.8098 7.32773 20.2659 7.32773 19.5951V6.26241C7.32773 5.94027 7.20234 5.63136 6.97902 5.40349L2.03236 0.355749Z" transform="translate(29.9195 31.1902)" fill="url(#paint2_linear)"/>
<path d="M6.59296 0.0923815C6.14798 -0.0954448 5.63594 0.00844829 5.29549 0.355722L0.348704 5.40346C0.125506 5.63133 8.63123e-07 5.94025 8.63123e-07 6.26239V19.5949C8.63123e-07 20.2658 0.533013 20.8097 1.19047 20.8097H6.13725C6.79471 20.8097 7.32773 20.2658 7.32773 19.5949V1.21465C7.32784 0.723318 7.03783 0.280448 6.59296 0.0923815Z" transform="translate(39.8129 31.1902)" fill="url(#paint3_linear)"/>
<defs>
<linearGradient id="paint0_linear" x2="1" gradientUnits="userSpaceOnUse" gradientTransform="translate(35) scale(35 16.6197) rotate(90)">
<stop stop-color="#D6212C"/>
<stop offset="1" stop-color="#A7117B"/>
</linearGradient>
<linearGradient id="paint1_linear" x2="1" gradientUnits="userSpaceOnUse" gradientTransform="translate(7.32761) scale(7.32761 20.8098) rotate(90)">
<stop stop-color="#D6212C"/>
<stop offset="1" stop-color="#A7117B"/>
</linearGradient>
<linearGradient id="paint2_linear" x2="1" gradientUnits="userSpaceOnUse" gradientTransform="translate(7.32772) scale(7.32772 20.8098) rotate(90)">
<stop stop-color="#D6212C"/>
<stop offset="1" stop-color="#A7117B"/>
</linearGradient>
<linearGradient id="paint3_linear" x2="1" gradientUnits="userSpaceOnUse" gradientTransform="translate(7.32772) scale(7.32772 20.8097) rotate(90)">
<stop stop-color="#D6212C"/>
<stop offset="1" stop-color="#A7117B"/>
</linearGradient>
</defs>
</svg>
