<svg width="103" height="100" viewBox="0 0 103 100" fill="none" xmlns="http://www.w3.org/2000/svg">
<path fill-rule="evenodd" clip-rule="evenodd" d="M60.6931 4.18822C34.4632 -6.01278 8.05679 3.0406 1.49672 24.6115C-5.16715 46.2992 11.0358 71.791 37.8781 81.3545C64.8346 90.801 91.7496 81.2376 97.8011 60.1874C103.738 39.2541 87.0371 14.2723 60.6931 4.18822Z" transform="translate(4.00015 15)" fill="url(#paint0_linear)"/>
<path d="M0 0V4.45312V11.2812H24.4922V4.45312V0H0Z" transform="translate(41.7539 40)" fill="white"/>
<path d="M0 0V4.45312V13.3594H24.4922V4.45312V0H0ZM20.0391 6.67969H4.45312V4.45312H20.0391V6.67969Z" transform="translate(41.7539 64.6406)" fill="white"/>
<path d="M35.6992 0H33.4727H31.2461H6.75391H4.52734H2.30078H0V15.5859H4.52734V8.90625H33.4727V15.5859H38V0H35.6992ZM29.0195 6.67969H26.793V4.45312H29.0195V6.67969ZM33.4727 6.67969H31.2461V4.45312H33.4727V6.67969Z" transform="translate(35 53.5078)" fill="white"/>
<path d="M2.22656 0H0V6.82812H2.22656V0Z" transform="translate(37.3008 44.4531)" fill="white"/>
<path d="M2.22656 0H0V6.82812H2.22656V0Z" transform="translate(68.4727 44.4531)" fill="white"/>
<circle cx="17.5" cy="17.5" r="17.5" transform="translate(0.000152588)" fill="#F2F2F2"/>
<path d="M4.10883 8.4C5.13549 8.456 5.91483 8.736 6.44683 9.24C6.98816 9.73467 7.25883 10.3833 7.25883 11.186C7.25883 11.746 7.12349 12.2453 6.85283 12.684C6.58216 13.1133 6.18083 13.454 5.64883 13.706C5.11683 13.958 4.46816 14.084 3.70283 14.084C2.99349 14.084 2.32149 13.972 1.68683 13.748C1.06149 13.5147 0.557495 13.2067 0.174828 12.824L0.664828 12.026C0.991495 12.362 1.42549 12.6373 1.96683 12.852C2.50816 13.0573 3.08683 13.16 3.70283 13.16C4.50549 13.16 5.12616 12.9873 5.56483 12.642C6.00349 12.2873 6.22283 11.802 6.22283 11.186C6.22283 10.5793 6.00349 10.1033 5.56483 9.758C5.12616 9.41267 4.46349 9.24 3.57683 9.24H2.87683V8.498L5.59283 5.096H0.580828V4.2H6.88083V4.914L4.10883 8.4Z" transform="translate(13.0002 9)" fill="#D6212A"/>
<defs>
<linearGradient id="paint0_linear" x2="1" gradientUnits="userSpaceOnUse" gradientTransform="translate(99) scale(99 85) rotate(90)">
<stop stop-color="#D6212C"/>
<stop offset="1" stop-color="#A7117B"/>
</linearGradient>
</defs>
</svg>
