<svg width="103" height="100" viewBox="0 0 103 100" fill="none" xmlns="http://www.w3.org/2000/svg">
<path fill-rule="evenodd" clip-rule="evenodd" d="M60.6931 4.18822C34.4632 -6.01278 8.05679 3.0406 1.49672 24.6115C-5.16715 46.2992 11.0358 71.791 37.8781 81.3545C64.8346 90.801 91.7496 81.2376 97.8011 60.1874C103.738 39.2541 87.0371 14.2723 60.6931 4.18822Z" transform="translate(4 15)" fill="url(#paint0_linear)"/>
<path d="M-6.41099e-07 -4.82559e-07V1.09338C-6.41099e-07 3.01752 1.31431 4.65059 3.12158 5.20042V4.10704C3.12167 2.18299 1.80736 0.549828 -6.41099e-07 -4.82559e-07Z" transform="translate(49.0405 58.3799)" fill="white"/>
<path d="M-6.41099e-07 2.09808e-08V1.09338C-6.41099e-07 3.01752 1.31431 4.65059 3.12158 5.20042V4.10704C3.12167 2.18298 1.80736 0.549914 -6.41099e-07 2.09808e-08Z" transform="translate(49.0405 65.2686)" fill="white"/>
<path d="M-7.38894e-07 4.10704V5.20042C1.80736 4.65042 3.12158 3.01735 3.12158 1.09338V6.29425e-07C1.31431 0.549829 -7.38894e-07 2.1829 -7.38894e-07 4.10704Z" transform="translate(54.8378 65.2686)" fill="white"/>
<path d="M27.9441 0H5.05587L4.34644e-08 7.80957V44H33V7.80957L27.9441 0ZM23.6352 29.362C23.6352 32.7187 21.1347 35.5208 17.8379 36.1273V38.8336H15.1622V36.1273C11.8654 35.5208 9.36491 32.7188 9.36491 29.362V16.3601H12.0406V18.7221C13.206 18.9365 14.2712 19.425 15.1622 20.1158V11.1938H17.8379V20.1157C18.7289 19.4249 19.7942 18.9364 20.9595 18.722V16.3601H23.6352V29.362V29.362ZM3.75163 6.88849L6.53878 2.5832H26.4612L29.2484 6.88849H3.75163Z" transform="translate(37 37)" fill="white"/>
<path d="M-7.38894e-07 4.10704V5.20042C1.80736 4.65042 3.12158 3.01744 3.12158 1.09338V-4.82559e-07C1.31431 0.549828 -7.38894e-07 2.18299 -7.38894e-07 4.10704Z" transform="translate(54.8378 58.3799)" fill="white"/>
<circle cx="17.5" cy="17.5" r="17.5" transform="translate(0.000244141)" fill="#F2F2F2"/>
<path d="M9.43007 11.424H7.47007V14H6.46207V11.424H0.93207V10.696L6.12607 4.2H7.24607L2.23407 10.528H6.49007V8.26H7.47007V10.528H9.43007V11.424Z" transform="translate(12.0002 9)" fill="#D6212A"/>
<defs>
<linearGradient id="paint0_linear" x2="1" gradientUnits="userSpaceOnUse" gradientTransform="translate(99) scale(99 85) rotate(90)">
<stop stop-color="#D6212C"/>
<stop offset="1" stop-color="#A7117B"/>
</linearGradient>
</defs>
</svg>
