<svg width="103" height="100" viewBox="0 0 103 100" fill="none" xmlns="http://www.w3.org/2000/svg">
<path fill-rule="evenodd" clip-rule="evenodd" d="M60.6931 4.18822C34.4632 -6.01278 8.05679 3.0406 1.49672 24.6115C-5.16715 46.2992 11.0358 71.791 37.8781 81.3545C64.8346 90.801 91.7496 81.2376 97.801 60.1874C103.738 39.2541 87.0371 14.2723 60.6931 4.18822Z" transform="translate(4 15)" fill="#BDBDBD"/>
<path d="M14.9984 0C6.72809 0 -2.63891e-07 6.80179 -2.63891e-07 15.1617C-2.63891e-07 18.4241 1.01172 21.533 2.92544 24.151C4.91891 26.8792 6.16218 30.0905 6.52047 33.4388C6.68601 34.9863 7.73386 36.2223 9.12221 36.6891V40.0937C9.12221 42.484 10.5357 44.5366 12.5531 45.4786C12.5531 45.4933 12.5483 45.507 12.5483 45.5219C12.5483 46.8908 13.6459 48 14.9996 48C16.354 48 17.4517 46.8908 17.4517 45.5219C17.4517 45.507 17.447 45.4933 17.447 45.4786C19.4654 44.5366 20.8778 42.484 20.8778 40.0937V36.6885C22.266 36.2215 23.314 34.9849 23.4795 33.4374C23.8372 30.0893 25.0805 26.8772 27.0741 24.1504C28.9881 21.5324 30 18.4241 30 15.1617C30 6.80179 23.27 0 14.9984 0ZM10.1168 24.0524C9.20945 24.0658 8.34656 23.5267 7.99145 22.6244C7.53036 21.4555 8.09474 20.1328 9.25058 19.6679C10.4056 19.2023 11.7147 19.772 12.1745 20.9403C12.5312 21.8437 12.2717 22.8329 11.6017 23.4533L14.9996 32.0792L18.3977 23.4533C17.7286 22.833 17.4689 21.8437 17.8253 20.9403C18.2852 19.7721 19.5938 19.2024 20.7494 19.6679C21.9048 20.1328 22.4695 21.4555 22.0082 22.6244C21.6534 23.5268 20.7902 24.0658 19.8832 24.0524L16.0993 33.6617H14.3762H13.9007L10.1168 24.0524ZM14.9996 43.6065C13.4598 43.6065 12.1683 42.5826 11.7117 41.1787H18.2883C17.8332 42.5827 16.5401 43.6065 14.9996 43.6065ZM18.4758 38.7513H11.5236V36.8986H18.4758V38.7513Z" transform="translate(69 33) scale(-1 1)" fill="white"/>
<circle cx="17.5" cy="17.5" r="17.5" transform="translate(0.000152588)" fill="#F2F2F2"/>
<path d="M3.9147 4.2V14H2.9067V5.096H0.596703V4.2H3.9147Z" transform="translate(14.0002 9)" fill="#D6212A"/>
</svg>
