<svg width="103" height="100" viewBox="0 0 103 100" fill="none" xmlns="http://www.w3.org/2000/svg">
<path fill-rule="evenodd" clip-rule="evenodd" d="M60.6931 4.18822C34.4632 -6.01278 8.05679 3.0406 1.49672 24.6115C-5.16715 46.2992 11.0358 71.791 37.8781 81.3545C64.8346 90.801 91.7496 81.2376 97.8011 60.1874C103.738 39.2541 87.0371 14.2723 60.6931 4.18822Z" transform="translate(4 15)" fill="url(#paint0_linear)"/>
<path d="M9.78258 0.18937H8.21742C6.6562 0.18937 5.34452 1.21092 4.88412 2.61164C2.11612 3.07954 0 5.47379 0 8.35606C0 11.2383 2.11612 13.6326 4.88412 14.1005C5.34452 15.5012 6.6562 16.5228 8.21742 16.5228H9.78265C11.202 16.5228 12.6456 16.59 14.087 16.7121V-4.69154e-08C12.6456 0.122008 11.202 0.18937 9.78258 0.18937ZM4.69568 11.6562C3.32916 11.1747 2.34787 9.87703 2.34787 8.35599C2.34787 6.83495 3.32916 5.53731 4.69568 5.0557V11.6562Z" transform="translate(36 46.8105)" fill="white"/>
<path d="M7.98989 5.32858L7.14888 0.314731C5.36534 0.12012 3.56358 0.0118091 1.79937 0.0118091H0.234211C0.15518 0.0118091 0.0783282 0.00307387 1.02997e-07 -7.84767e-07L1.09399 6.42847C1.38136 8.11847 2.84189 9.34512 4.56602 9.34512C6.71098 9.34512 8.3423 7.42912 7.98989 5.32858Z" transform="translate(43.9832 65.655)" fill="white"/>
<path d="M2.34781 3.99847e-09C1.0511 3.99847e-09 -9.09805e-07 1.04461 -9.09805e-07 2.33331V27.9999C-9.09805e-07 29.2886 1.0511 30.3332 2.34781 30.3332C3.64451 30.3332 4.69561 29.2887 4.69561 28V2.33338C4.69561 1.04468 3.64451 3.99847e-09 2.34781 3.99847e-09Z" transform="translate(67.3044 40)" fill="white"/>
<path d="M-1.1158e-07 3.22272V20.444C5.58851 21.1665 8.42892 22.2718 12.5217 23.6668V-8.10358e-08C8.4588 1.38464 5.61171 2.49738 -1.1158e-07 3.22272Z" transform="translate(52.4348 43.3333)" fill="white"/>
<circle cx="17.5" cy="17.5" r="17.5" fill="#F2F2F2"/>
<path d="M8.02193 4.2V4.914L3.91993 14H2.82793L6.85993 5.096H1.81993V6.93H0.82593V4.2H8.02193Z" transform="translate(13 9)" fill="#D6212A"/>
<defs>
<linearGradient id="paint0_linear" x2="1" gradientUnits="userSpaceOnUse" gradientTransform="translate(99) scale(99 85) rotate(90)">
<stop stop-color="#D6212C"/>
<stop offset="1" stop-color="#A7117B"/>
</linearGradient>
</defs>
</svg>
