<svg width="103" height="100" viewBox="0 0 103 100" fill="none" xmlns="http://www.w3.org/2000/svg">
<path fill-rule="evenodd" clip-rule="evenodd" d="M60.6931 4.18822C34.4632 -6.01278 8.05679 3.0406 1.49672 24.6115C-5.16715 46.2992 11.0358 71.791 37.8781 81.3545C64.8346 90.801 91.7496 81.2376 97.8011 60.1874C103.738 39.2541 87.0371 14.2723 60.6931 4.18822Z" transform="translate(4 15)" fill="url(#paint0_linear)"/>
<circle cx="17.5" cy="17.5" r="17.5" fill="#F2F2F2"/>
<path d="M5.02238 8.134C5.66638 8.134 6.23571 8.25533 6.73037 8.498C7.23438 8.74067 7.62637 9.086 7.90637 9.534C8.18637 9.97267 8.32638 10.486 8.32638 11.074C8.32638 11.6713 8.18171 12.1987 7.89237 12.656C7.60304 13.1133 7.20171 13.468 6.68837 13.72C6.18438 13.9627 5.61504 14.084 4.98037 14.084C3.68304 14.084 2.68904 13.6593 1.99838 12.81C1.30771 11.9513 0.962375 10.7427 0.962375 9.184C0.962375 8.092 1.14904 7.168 1.52238 6.412C1.89571 5.656 2.41837 5.08667 3.09037 4.704C3.76237 4.312 4.54637 4.116 5.44238 4.116C6.41304 4.116 7.18771 4.29333 7.76637 4.648L7.36038 5.46C6.89371 5.152 6.25904 4.998 5.45637 4.998C4.37371 4.998 3.52437 5.34333 2.90837 6.034C2.29237 6.71533 1.98438 7.70933 1.98438 9.016C1.98438 9.24933 1.99838 9.51533 2.02638 9.814C2.26904 9.282 2.65637 8.87133 3.18837 8.582C3.72038 8.28333 4.33171 8.134 5.02238 8.134ZM4.93837 13.23C5.64771 13.23 6.22171 13.0387 6.66037 12.656C7.10838 12.264 7.33238 11.746 7.33238 11.102C7.33238 10.458 7.10838 9.94467 6.66037 9.562C6.22171 9.17933 5.62438 8.988 4.86838 8.988C4.37371 8.988 3.93504 9.08133 3.55238 9.268C3.17904 9.45467 2.88504 9.71133 2.67037 10.038C2.45571 10.3647 2.34837 10.7287 2.34837 11.13C2.34837 11.5033 2.44637 11.8487 2.64238 12.166C2.84771 12.4833 3.14638 12.74 3.53838 12.936C3.93037 13.132 4.39704 13.23 4.93837 13.23Z" transform="translate(13 9)" fill="#D6212A"/>
<path d="M2.23277 11.1124L5.63203 7.64077L9.03115 11.1124C9.28654 11.3731 9.62116 11.5035 9.95593 11.5035C10.2907 11.5035 10.6253 11.3731 10.8807 11.1124C11.3915 10.5908 11.3915 9.74499 10.8807 9.22334L7.48171 5.75184L10.8808 2.28034C11.3916 1.7587 11.3916 0.91292 10.8808 0.391272C10.3699 -0.130236 9.54206 -0.130236 9.03115 0.391272L5.63203 3.86277L2.23277 0.391131C1.72186 -0.130377 0.89399 -0.130377 0.383079 0.391131C-0.127693 0.912779 -0.127693 1.75855 0.383079 2.2802L3.7822 5.7517L0.383218 9.22334C-0.127555 9.74499 -0.127555 10.5908 0.383218 11.1124C0.638604 11.3731 0.973229 11.5035 1.30799 11.5035C1.64276 11.5035 1.97738 11.3731 2.23277 11.1124V11.1124Z" transform="translate(36 40)" fill="white"/>
<path d="M10.8808 0.39113C10.3699 -0.130377 9.54206 -0.130377 9.03115 0.39113L5.63203 3.86263L2.23277 0.39113C1.72186 -0.130377 0.893991 -0.130377 0.38308 0.39113C-0.127693 0.91292 -0.127693 1.75855 0.38308 2.2802L3.78234 5.7517L0.38308 9.22334C-0.127693 9.74499 -0.127693 10.5908 0.38308 11.1124C0.638466 11.3731 0.973092 11.5035 1.30786 11.5035C1.64262 11.5035 1.97724 11.3731 2.23263 11.1124L5.63189 7.64077L9.03101 11.1123C9.2864 11.373 9.62102 11.5034 9.95579 11.5034C10.2906 11.5034 10.6252 11.373 10.8806 11.1123C11.3913 10.5905 11.3913 9.74485 10.8806 9.2232L7.48144 5.7517L10.8806 2.2802C11.3916 1.75855 11.3916 0.912638 10.8808 0.39113V0.39113Z" transform="translate(53.296 66.4966)" fill="white"/>
<path d="M24.0615 5.01023L18.7872 0.327661C18.242 -0.156485 17.416 -0.0971295 16.9422 0.459483C16.4683 1.01624 16.5261 1.85976 17.0713 2.34376L19.8684 4.82709C11.6126 5.92988 6.72439 10.336 4.00694 14.0603C1.49643 17.5009 0.396194 20.8861 4.63413e-08 22.3784C0.261046 22.3431 0.526648 22.3229 0.796943 22.3229C1.44521 22.3229 2.06932 22.4293 2.65491 22.624C3.09142 21.1541 4.11255 18.3578 6.16723 15.5707C9.56857 10.9567 14.2936 8.23952 20.2378 7.46677L17.6315 10.5288C17.1575 11.0856 17.2154 11.9291 17.7605 12.4131C18.0082 12.6331 18.3138 12.7408 18.6179 12.7408C18.9835 12.7408 19.347 12.5851 19.6055 12.2813L24.1905 6.89451C24.6645 6.33776 24.6067 5.49424 24.0615 5.01023V5.01023Z" transform="translate(40.2172 43.1475)" fill="white"/>
<path d="M3.86462 1.54892e-07C1.73373 1.54892e-07 -4.63413e-08 1.7705 -4.63413e-08 3.9469C-4.63413e-08 6.1233 1.73359 7.89395 3.86462 7.89395C5.99564 7.89395 7.72937 6.1233 7.72937 3.9469C7.72937 1.7705 5.99564 1.54892e-07 3.86462 1.54892e-07V1.54892e-07Z" transform="translate(37.1497 67.6704)" fill="white"/>
<path d="M3.86476 -2.15128e-08C1.73373 -2.15128e-08 3.70731e-07 1.7705 3.70731e-07 3.9469C3.70731e-07 6.12331 1.73359 7.89395 3.86476 7.89395C5.99564 7.89395 7.72937 6.12345 7.72937 3.9469C7.72937 1.77064 5.99578 -2.15128e-08 3.86476 -2.15128e-08Z" transform="translate(69.2706 44.9592)" fill="white"/>
<defs>
<linearGradient id="paint0_linear" x2="1" gradientUnits="userSpaceOnUse" gradientTransform="translate(99) scale(99 85) rotate(90)">
<stop stop-color="#D6212C"/>
<stop offset="1" stop-color="#A7117B"/>
</linearGradient>
</defs>
</svg>
