<svg width="103" height="100" viewBox="0 0 103 100" fill="none" xmlns="http://www.w3.org/2000/svg">
<path fill-rule="evenodd" clip-rule="evenodd" d="M60.6931 4.18822C34.4632 -6.01278 8.05679 3.0406 1.49672 24.6115C-5.16715 46.2992 11.0358 71.791 37.8781 81.3545C64.8346 90.801 91.7496 81.2376 97.8011 60.1874C103.738 39.2541 87.0371 14.2723 60.6931 4.18822Z" transform="translate(4 15)" fill="url(#paint0_linear)"/>
<circle cx="17.5" cy="17.5" r="17.5" fill="#F2F2F2"/>
<path d="M3.33916 8.218C4.75782 8.218 5.78916 8.47467 6.43316 8.988C7.08649 9.492 7.41316 10.2013 7.41316 11.116C7.41316 11.6853 7.27782 12.194 7.00716 12.642C6.74582 13.09 6.34916 13.4447 5.81716 13.706C5.28516 13.958 4.63182 14.084 3.85716 14.084C3.15716 14.084 2.48982 13.972 1.85516 13.748C1.22982 13.5147 0.725823 13.2067 0.343156 12.824L0.833156 12.026C1.15982 12.362 1.58916 12.6373 2.12116 12.852C2.65316 13.0573 3.22716 13.16 3.84316 13.16C4.65516 13.16 5.28049 12.978 5.71916 12.614C6.16716 12.25 6.39116 11.7647 6.39116 11.158C6.39116 10.486 6.13916 9.97733 5.63516 9.632C5.14049 9.28667 4.30049 9.114 3.11516 9.114H1.02916L1.53316 4.2H6.89516V5.096H2.41516L2.07916 8.218H3.33916Z" transform="translate(13 9)" fill="#D6212A"/>
<path d="M22.5413 28.1431C15.3743 32.1731 6.1893 29.71 1.9343 22.542C-2.0977 15.374 0.366296 6.18805 7.5343 1.93405C14.7023 -2.09795 23.8873 0.367049 28.1423 7.53505C32.3973 14.703 29.9343 24.1091 22.5413 28.1431ZM21.4223 26.126C27.4713 22.542 29.4843 14.926 26.1253 8.87805C22.5413 2.82905 14.9243 0.814048 8.8763 4.17305C2.8283 7.75705 0.588297 15.3741 4.1723 21.4211C7.5343 27.4711 15.3743 29.486 21.4223 26.126ZM26.3363 27.091L19.9373 30.7901L24.9813 39.5181L31.3813 35.819L26.3363 27.091ZM25.6783 40.91C26.7953 42.703 29.0353 43.3751 30.8283 42.2541C32.6193 41.1371 33.2913 38.8971 32.1723 37.1061L25.6783 40.91ZM8.4303 21.646H11.3423V11.791H8.4303V21.646ZM13.5823 21.6441H16.4943V15.373H13.5823V21.6441ZM18.7343 21.646H21.6463V8.87805H18.7343V21.646Z" transform="translate(38 37)" fill="white"/>
<defs>
<linearGradient id="paint0_linear" x2="1" gradientUnits="userSpaceOnUse" gradientTransform="translate(99) scale(99 85) rotate(90)">
<stop stop-color="#D6212C"/>
<stop offset="1" stop-color="#A7117B"/>
</linearGradient>
</defs>
</svg>
