<svg width="103" height="100" viewBox="0 0 103 100" fill="none" xmlns="http://www.w3.org/2000/svg">
<path fill-rule="evenodd" clip-rule="evenodd" d="M60.6931 4.18822C34.4632 -6.01278 8.05679 3.0406 1.49672 24.6115C-5.16715 46.2992 11.0358 71.791 37.8781 81.3545C64.8346 90.801 91.7496 81.2376 97.8011 60.1874C103.738 39.2541 87.0371 14.2723 60.6931 4.18822Z" transform="translate(4 15)" fill="url(#paint0_linear)"/>
<circle cx="17.5" cy="17.5" r="17.5" fill="#F2F2F2"/>
<path d="M3.9147 4.2V14H2.9067V5.096H0.596703V4.2H3.9147Z" transform="translate(14 9)" fill="#D6212A"/>
<path d="M26.1053 20.5H25.2631V19.6458C25.2631 19.1744 24.8859 18.7916 24.421 18.7916H2.52596C2.06276 18.7916 1.68381 19.1743 1.68381 19.6458V36.7292C1.68381 39.0833 3.57351 41 5.89439 41H21.0525C23.3751 41 25.2631 39.0833 25.2631 36.7292V32.4583H26.1052C29.3574 32.4583 32 29.778 32 26.4792C32.0001 23.1821 29.3575 20.5 26.1053 20.5ZM26.1053 30.75H25.2631V22.2084H26.1053C28.4279 22.2084 30.3159 24.1251 30.3159 26.4792C30.3159 28.8333 28.4279 30.75 26.1053 30.75ZM19.3683 17.0833H22.7368C23.0568 17.0833 23.3515 16.8988 23.493 16.605L26.0581 11.3023C27.7541 11.0563 29.0291 9.52393 29.2884 7.31338C29.6168 4.51167 28.2341 1.0711 24.4176 0.134977C24.079 0.0529705 23.7304 0.187947 23.5317 0.471555C23.3329 0.758537 23.3279 1.13781 23.5165 1.43334C24.404 2.81026 23.8685 3.62342 22.9203 4.83805C22.5582 5.30097 22.2146 5.74176 22.0091 6.2389C21.6133 7.18703 21.5931 8.18813 21.9502 9.05081C22.1068 9.43008 22.3443 9.77003 22.6306 10.0741L19.3026 14.8404L19.0921 15.1462L18.6795 15.7372C18.4993 15.9986 18.474 16.3403 18.6205 16.6221C18.767 16.9039 19.0534 17.0833 19.3683 17.0833ZM23.5604 6.9017C23.6783 6.61644 23.9511 6.26794 24.2408 5.9006C24.8808 5.08061 25.7499 3.96502 25.6538 2.51465C27.2337 3.60796 27.8046 5.50084 27.616 7.11005C27.4779 8.27854 26.8631 9.6418 25.5814 9.6418H25.5797L24.1431 9.15832C23.8483 8.94989 23.626 8.69194 23.5014 8.38958C23.3212 7.94549 23.3381 7.43297 23.5604 6.9017ZM1.27631 6.95632C0.995083 6.78375 0.641359 6.79403 0.368483 6.98025C0.0973098 7.16985 -0.0424933 7.4996 0.0114319 7.82762L0.796249 12.5973L4.87546 9.14474C4.87553 9.14474 1.27631 6.95632 1.27631 6.95632ZM4.21025 17.0833H9.28146C9.73113 17.0833 10.0899 16.7229 10.1135 16.2719C10.1371 16.7229 10.4958 17.0833 10.9472 17.0833H17.6841C18.149 17.0833 18.5263 16.7023 18.5263 16.2291V15.3749H16.4209C15.9577 15.3749 15.5788 14.9939 15.5788 14.5207C15.5788 14.0493 15.9577 13.6665 16.4209 13.6665H18.5263V11.9582H14.3157C13.8525 11.9582 13.4736 11.5772 13.4736 11.104C13.4736 10.6325 13.8525 10.2498 14.3157 10.2498H18.5263V8.54151H16.4209C15.9577 8.54151 15.5788 8.16051 15.5788 7.68731C15.5788 7.21583 15.9577 6.83311 16.4209 6.83311H18.5263V5.12503H14.3157C13.8525 5.12503 13.4736 4.74403 13.4736 4.27083C13.4736 3.79936 13.8525 3.41663 14.3157 3.41663H18.5263V0.854198C18.5262 0.382643 18.149 0 17.6841 0H10.9472C10.484 0 10.105 0.382643 10.105 0.854198V16.1472C10.0848 15.9422 10.004 15.7526 9.8642 15.6159L6.13028 10.3099L1.60814 14.1314L3.53831 16.7417C3.69483 16.9569 3.94581 17.0833 4.21025 17.0833Z" transform="translate(38 35)" fill="white"/>
<defs>
<linearGradient id="paint0_linear" x2="1" gradientUnits="userSpaceOnUse" gradientTransform="translate(99) scale(99 85) rotate(90)">
<stop stop-color="#D6212C"/>
<stop offset="1" stop-color="#A7117B"/>
</linearGradient>
</defs>
</svg>
