<svg width="179" height="43" viewBox="0 0 179 43" fill="none" xmlns="http://www.w3.org/2000/svg">
<path d="M1.95217 14.6217H0.42209C0.158284 14.6217 0 14.568 0 14.1917V1.12888C0 0.698833 0.263806 1.28165e-08 1.16075 1.28165e-08H10.9743C11.8713 1.28165e-08 12.1351 0.698833 12.1351 1.12888V14.1917C12.1351 14.568 12.0296 14.6217 11.713 14.6217H10.2357C9.91911 14.6217 9.81359 14.568 9.81359 14.1917V2.0965H2.37426V14.1917C2.37426 14.568 2.21597 14.6217 1.95217 14.6217Z" transform="translate(0 15.3763)" fill="white"/>
<path d="M12.2406 6.18198C12.2406 7.95594 11.2909 8.33224 10.1829 8.33224H2.37426C2.37426 11.8264 4.37918 13.1166 6.70068 13.1166C7.91419 13.1166 9.18045 12.7403 9.91911 12.3102C10.1302 12.1489 10.2884 12.2027 10.4467 12.4715L11.0271 13.6541C11.1854 13.9229 11.1326 14.0842 10.8688 14.1917C9.54978 14.998 7.96694 15.213 6.54239 15.213C2.47978 15.213 4.02536e-07 12.9015 4.02536e-07 7.68716C4.02536e-07 2.79533 2.69082 -8.01031e-10 6.33135 -8.01031e-10C10.4467 0.0537564 12.2406 2.58031 12.2406 6.18198ZM6.33135 2.0965C3.90433 2.0965 2.63806 4.13924 2.47978 6.45076H10.0246C10.0246 4.08548 9.23322 2.0965 6.33135 2.0965Z" transform="translate(15.1425 15)" fill="white"/>
<path d="M18.0443 14.6217H1.26627C0.474852 14.6217 0 14.0842 0 13.1165V0.483807C0 0.0537563 0.158284 0 0.527612 0H1.84664C2.26873 0 2.37426 0.0537563 2.37426 0.483807V12.6327H8.54732V0.483807C8.54732 0.0537563 8.65284 0 9.07493 0H10.3412C10.7633 0 10.8688 0.0537563 10.8688 0.483807V12.6327H16.9891V0.483807C16.9891 0.0537563 17.1474 0 17.5167 0H18.8358C19.1523 0 19.3106 0.0537563 19.3106 0.483807V13.1165C19.3106 14.0842 18.8885 14.6217 18.0443 14.6217Z" transform="translate(30.3905 15.3763)" fill="white"/>
<path d="M6.48963 14.6217H5.1706C4.80127 14.6217 4.69575 14.5142 4.69575 14.1379V2.0965H0.47485C0.0527604 2.0965 -1.61015e-06 1.93523 -1.61015e-06 1.61269V0.537564C-1.61015e-06 0.215025 0.105522 1.28165e-08 0.47485 1.28165e-08H11.4492C11.8713 1.28165e-08 11.924 0.215025 11.924 0.537564V1.61269C11.924 1.93523 11.8713 2.0965 11.4492 2.0965H7.01724V14.1379C6.96448 14.5142 6.85896 14.6217 6.48963 14.6217Z" transform="translate(51.8115 15.3763)" fill="white"/>
<path d="M11.2909 14.2992C9.6553 15.0518 7.65038 15.2668 5.8565 15.2668C1.16075 15.2668 0 13.1165 0 10.6438C0 8.06345 1.58284 5.69817 5.96202 5.69817H9.28598V5.0531C9.28598 3.27914 8.75836 2.15025 6.01478 2.15025C4.74851 2.15025 3.11291 2.41904 2.21597 2.68782C1.8994 2.79533 1.74112 2.79533 1.68836 2.47279L1.37179 1.29015C1.26627 1.07513 1.31903 0.913858 1.6356 0.806345C3.00739 0.215025 4.95956 0 6.48963 0C10.1302 0 11.713 1.7202 11.713 4.83807V13.5466C11.713 13.9229 11.5547 14.1917 11.2909 14.2992ZM6.12031 7.74091C4.80128 7.74091 2.42702 7.95594 2.42702 10.59C2.42702 12.6327 3.95709 13.2241 5.90926 13.2241C6.54239 13.2241 8.17799 13.1165 9.33874 12.6865V7.74091H6.12031Z" transform="translate(63.8411 15.0537)" fill="white"/>
<path d="M4.27366 2.31152C4.27366 3.44041 3.37672 4.35427 2.32149 4.35427C1.21351 4.35427 0.36933 3.44041 0.36933 2.31152C0.36933 1.18264 1.26627 0.322538 2.32149 0.322538C3.37672 0.268782 4.27366 1.18264 4.27366 2.31152ZM4.53747 2.31152C4.53747 1.02137 3.535 1.60206e-09 2.26873 1.60206e-09C1.00246 1.60206e-09 3.22029e-06 1.02137 3.22029e-06 2.31152C3.22029e-06 3.60168 1.00246 4.62305 2.26873 4.62305C3.535 4.62305 4.53747 3.60168 4.53747 2.31152ZM3.42948 1.7202C3.42948 1.50518 3.32396 1.29015 3.16568 1.18264C2.95463 1.07513 2.74358 1.07513 2.53254 1.07513H1.42456V3.65543H1.74112V2.41904H2.32149L3.06015 3.60168H3.42948L2.69082 2.41904C3.06015 2.41904 3.42948 2.20401 3.42948 1.7202ZM3.11291 1.7202C3.11291 2.25777 2.5853 2.20401 2.21597 2.20401H1.74112V1.2364H2.47978C2.79635 1.2364 3.11291 1.29015 3.11291 1.7202Z" transform="translate(80.2498 15.1613)" fill="white"/>
<line y1="-0.5" x2="42" y2="-0.5" transform="translate(98 43) rotate(-90)" stroke="white"/>
<path d="M5.23346 2.79859H2.10476V1.67916H8.81725V0.111945H4.34002e-07V6.99648H7.45199C8.02085 6.94051 8.53282 6.82857 8.87413 6.38079C9.10167 6.10093 9.21544 5.70913 9.21544 5.09344V4.42178C8.9879 2.46276 6.71248 2.79859 5.23346 2.79859ZM6.71248 5.26136C6.6556 5.31733 6.48494 5.31733 6.37117 5.31733H2.04788V4.19789H6.59871C6.82625 4.25386 6.88314 4.42178 6.88314 4.70164C6.94002 5.03747 6.88314 5.20538 6.71248 5.26136ZM11.7184 6.99648H19.7961V5.31733H13.9369V4.19789H19.5117V2.68665H13.9369V1.62318H19.7961V0.0559702H11.7184V6.99648ZM33.1073 0.111945V1.84707H36.4067V6.99648H38.6821V1.84707H41.9815V0.111945H33.1073ZM29.1822 5.20539C29.0116 5.26136 28.8978 5.3733 28.5565 5.3733C28.329 5.3733 27.7601 5.42927 26.9068 5.42927C26.2242 5.42927 25.7122 5.3733 25.4278 5.3733C25.2003 5.3733 24.9727 5.31733 24.8589 5.14941C24.6883 5.09344 24.6314 4.92553 24.6314 4.70164C24.5745 4.47775 24.5745 4.19789 24.5745 3.63817C24.5745 3.13442 24.5745 2.68665 24.6314 2.46276C24.6314 2.23888 24.6883 2.07096 24.8589 1.95901C24.9158 1.90304 25.2003 1.7911 25.4278 1.7911H28.4996C28.784 1.84707 29.0685 1.84707 29.1254 1.95901C29.1822 2.01499 29.1822 2.12693 29.1822 2.1829C29.1822 2.23888 29.2391 2.40679 29.2391 2.63068H31.4577V2.1829C31.4577 1.67916 31.4008 1.23138 31.287 0.895548C31.1163 0.615689 30.8888 0.447775 30.6044 0.223888C30.3768 0.167916 29.9786 0.055971 29.5804 -8.54063e-07H27.5326C25.6553 -8.54063e-07 24.4039 0.0559727 23.7781 0.167916C23.1524 0.335832 22.7542 0.615691 22.5266 1.00749C22.4698 1.23138 22.356 1.51124 22.356 1.84707C22.2991 2.23888 22.2991 2.79859 22.2991 3.63817C22.2991 4.47775 22.2991 4.9815 22.356 5.3733C22.356 5.7651 22.4129 6.04496 22.5835 6.26885C22.7542 6.49274 22.868 6.66065 23.2093 6.7726C23.4937 6.94051 23.8919 6.99648 24.5745 7.05245C25.1434 7.10843 26.1104 7.10843 27.4757 7.10843C28.784 7.10843 29.7511 7.05246 30.2631 6.88454C30.8319 6.82857 31.1163 6.60468 31.3439 6.21288C31.5145 5.87705 31.5714 5.54122 31.5714 4.92553V4.30984H29.3529C29.3529 4.75761 29.296 5.03747 29.1822 5.20539Z" transform="translate(137.019 35.8916)" fill="white"/>
<path d="M10.3532 1.70813e-06H13.3112L15.5866 2.63068L17.9189 1.70813e-06H20.8201L14.5627 6.88454H11.7184L14.2214 4.08595L10.3532 1.70813e-06ZM8.47659e-10 1.70813e-06H8.76036V1.73513H5.57477V6.88454H3.24247V1.73513H8.47659e-10V1.70813e-06Z" transform="translate(115.061 36.0035)" fill="white"/>
<path d="M55.4672 30.6302C64.3413 30.6302 64.3982 30.6862 63.3743 23.186L60.8713 4.43538C60.2456 -0.0423706 58.5959 -0.602089 54.6139 0.461376L9.44685 13.055C6.77324 13.7827 6.71635 13.6707 7.11455 16.4134L8.13849 23.9136C8.30914 25.4808 8.4798 25.8726 6.88701 25.8726H3.53077C1.93797 25.8726 2.50683 25.4248 1.71043 20.6113C1.65355 20.1075 2.16551 19.7157 3.13257 19.2679C3.92896 18.8202 4.66847 18.3724 6.26127 17.4768L1.48289 18.7642C0.231409 19.044 -0.166789 19.4358 0.0607529 20.9471L0.686493 25.8726C0.857149 27.16 1.25535 27.7197 2.73437 27.7197C3.70142 27.7757 5.69241 27.7197 7.45586 27.7757C10.9259 27.8316 10.9259 27.104 10.5846 24.6412L9.56062 16.9731C9.33308 15.6857 8.99177 15.0141 11.1534 14.5103L51.5421 5.16301C56.036 4.04358 56.6618 4.04358 57.1169 7.34592L59.2216 22.4024C59.8474 27.2719 58.8803 27.7197 55.6947 27.9436L19.1174 30.5183L55.4672 30.6302Z" transform="translate(115)" fill="white"/>
</svg>
