<svg width="68" height="68" viewBox="0 0 68 68" fill="none" xmlns="http://www.w3.org/2000/svg">
<circle cx="34" cy="34" r="34" fill="#F2F2F2"/>
<path d="M26.6095 1.04764e-07H2.59371C1.15276 1.04764e-07 2.05213e-07 1.2097 2.05213e-07 2.64825V17.8839C2.05213e-07 19.3551 1.18478 20.5321 2.59371 20.5321H19.1486L22.8951 24.3901C23.0552 24.5536 23.2473 24.6516 23.4714 24.6516C23.9197 24.6516 24.304 24.292 24.304 23.8016V20.5321H26.6095C28.0505 20.5321 29.2032 19.3224 29.2032 17.8839V2.64825C29.2032 1.177 28.0184 1.04764e-07 26.6095 1.04764e-07ZM6.27613 13.1105C4.96327 13.1105 3.87455 11.9989 3.87455 10.6584C3.87455 9.31793 4.96327 8.20631 6.27613 8.20631C7.58899 8.20631 8.67771 9.31793 8.67771 10.6584C8.67771 11.9989 7.62102 13.1105 6.27613 13.1105ZM14.6977 13.1105C13.3848 13.1105 12.2961 11.9989 12.2961 10.6584C12.2961 9.31793 13.3848 8.20631 14.6977 8.20631C16.0105 8.20631 17.0993 9.31793 17.0993 10.6584C17.0993 11.9989 16.0105 13.1105 14.6977 13.1105ZM23.0872 13.1105C21.7743 13.1105 20.6856 11.9989 20.6856 10.6584C20.6856 9.31793 21.7743 8.20631 23.0872 8.20631C24.4001 8.20631 25.4888 9.31793 25.4888 10.6584C25.4888 11.9989 24.4001 13.1105 23.0872 13.1105Z" transform="translate(22.7968 20)" fill="url(#paint0_linear)"/>
<path d="M4.32381 5.19842V-5.18833e-07H1.69808C0.769471 -5.18833e-07 0.000965556 0.784668 0.000965556 1.73281V11.7373C-0.0310555 12.7508 0.73745 13.5355 1.69808 13.5355H3.20307V15.6933C3.20307 15.9876 3.45924 16.2492 3.74743 16.2492C3.90754 16.2492 4.03562 16.1838 4.13168 16.0857L6.59731 13.5682H17.4845C18.4131 13.5682 19.1816 12.7835 19.1816 11.8354V9.35062H8.39049C6.14901 9.35062 4.32381 7.48703 4.32381 5.19842Z" transform="translate(17 32.7507)" fill="url(#paint1_linear)"/>
<defs>
<linearGradient id="paint0_linear" x2="1" gradientUnits="userSpaceOnUse" gradientTransform="translate(29.2032) scale(29.2032 24.6516) rotate(90)">
<stop stop-color="#D6212C"/>
<stop offset="1" stop-color="#A7117B"/>
</linearGradient>
<linearGradient id="paint1_linear" x2="1" gradientUnits="userSpaceOnUse" gradientTransform="translate(19.1816) scale(19.1816 16.2492) rotate(90)">
<stop stop-color="#D6212C"/>
<stop offset="1" stop-color="#A7117B"/>
</linearGradient>
</defs>
</svg>
