<svg width="103" height="100" viewBox="0 0 103 100" fill="none" xmlns="http://www.w3.org/2000/svg">
<path fill-rule="evenodd" clip-rule="evenodd" d="M60.6931 4.18822C34.4632 -6.01278 8.05679 3.0406 1.49672 24.6115C-5.16715 46.2992 11.0358 71.791 37.8781 81.3545C64.8346 90.801 91.7496 81.2376 97.8011 60.1874C103.738 39.2541 87.0371 14.2723 60.6931 4.18822Z" transform="translate(4 15)" fill="white"/>
<path d="M35.6928 2.99017H39.7406V36.0339H35.6928V2.99017ZM27.6329 4.18615L27.0725 4.36521C26.3708 4.59327 25.5462 4.27568 25.2626 3.67123C25.1266 3.37858 25.1201 3.0552 25.2448 2.75943C25.3895 2.41735 25.6969 2.14964 26.0872 2.02448L32.4065 3.90811e-08L33.1757 5.79103C33.219 6.0859 33.1384 6.38701 32.9483 6.63645C32.7157 6.94291 32.342 7.14157 31.9227 7.18255C31.8725 7.18789 31.8162 7.19057 31.762 7.19057C31.047 7.19057 30.4398 6.72197 30.3497 6.10194L30.2523 5.22578C22.9489 15.6261 6.13136 26.773 5.40159 27.2531C5.15386 27.4162 4.85762 27.503 4.54405 27.503C4.12135 27.503 3.72377 27.3427 3.45395 27.0616C3.20578 26.8046 3.08971 26.4768 3.12566 26.14C3.16334 25.7904 3.36733 25.4688 3.68609 25.2603C3.85716 25.1472 20.5145 14.0724 27.6329 4.18615ZM32.4212 10.3295V36.033H28.3744V10.3295H32.4212ZM25.344 17.9673V36.0339H21.2958V17.9673H25.344ZM18.0242 25.9017V36.0326H13.9769V25.9017H18.0242ZM10.2861 29.8709V36.033H6.2392V29.8709H10.2861ZM40.9996 40H0V36.9114H41L40.9996 40Z" transform="translate(33 38)" fill="#D6212A"/>
<circle cx="17.5" cy="17.5" r="17.5" transform="translate(0.00012207)" fill="#F2F2F2"/>
<path d="M9.43007 11.424H7.47007V14H6.46207V11.424H0.93207V10.696L6.12607 4.2H7.24607L2.23407 10.528H6.49007V8.26H7.47007V10.528H9.43007V11.424Z" transform="translate(12.0001 9)" fill="#D6212A"/>
</svg>
