<svg width="64" height="43" viewBox="0 0 64 43" fill="none" xmlns="http://www.w3.org/2000/svg">
<path d="M5.23346 2.79859H2.10476V1.67916H8.81725V0.111945H4.34002e-07V6.99648H7.45199C8.02085 6.94051 8.53282 6.82857 8.87413 6.38079C9.10167 6.10093 9.21544 5.70913 9.21544 5.09344V4.42178C8.9879 2.46276 6.71248 2.79859 5.23346 2.79859ZM6.71248 5.26136C6.6556 5.31733 6.48494 5.31733 6.37117 5.31733H2.04788V4.19789H6.59871C6.82625 4.25386 6.88314 4.42178 6.88314 4.70164C6.94002 5.03747 6.88314 5.20538 6.71248 5.26136ZM11.7184 6.99648H19.7961V5.31733H13.9369V4.19789H19.5117V2.68665H13.9369V1.62318H19.7961V0.0559702H11.7184V6.99648ZM33.1073 0.111945V1.84707H36.4067V6.99648H38.6821V1.84707H41.9815V0.111945H33.1073ZM29.1822 5.20539C29.0116 5.26136 28.8978 5.3733 28.5565 5.3733C28.329 5.3733 27.7601 5.42927 26.9068 5.42927C26.2242 5.42927 25.7122 5.3733 25.4278 5.3733C25.2003 5.3733 24.9727 5.31733 24.8589 5.14941C24.6883 5.09344 24.6314 4.92553 24.6314 4.70164C24.5745 4.47775 24.5745 4.19789 24.5745 3.63817C24.5745 3.13442 24.5745 2.68665 24.6314 2.46276C24.6314 2.23888 24.6883 2.07096 24.8589 1.95901C24.9158 1.90304 25.2003 1.7911 25.4278 1.7911H28.4996C28.784 1.84707 29.0685 1.84707 29.1254 1.95901C29.1822 2.01499 29.1822 2.12693 29.1822 2.1829C29.1822 2.23888 29.2391 2.40679 29.2391 2.63068H31.4577V2.1829C31.4577 1.67916 31.4008 1.23138 31.287 0.895548C31.1163 0.615689 30.8888 0.447775 30.6044 0.223888C30.3768 0.167916 29.9786 0.055971 29.5804 -8.54063e-07H27.5326C25.6553 -8.54063e-07 24.4039 0.0559727 23.7781 0.167916C23.1524 0.335832 22.7542 0.615691 22.5266 1.00749C22.4698 1.23138 22.356 1.51124 22.356 1.84707C22.2991 2.23888 22.2991 2.79859 22.2991 3.63817C22.2991 4.47775 22.2991 4.9815 22.356 5.3733C22.356 5.7651 22.4129 6.04496 22.5835 6.26885C22.7542 6.49274 22.868 6.66065 23.2093 6.7726C23.4937 6.94051 23.8919 6.99648 24.5745 7.05245C25.1434 7.10843 26.1104 7.10843 27.4757 7.10843C28.784 7.10843 29.7511 7.05246 30.2631 6.88454C30.8319 6.82857 31.1163 6.60468 31.3439 6.21288C31.5145 5.87705 31.5714 5.54122 31.5714 4.92553V4.30984H29.3529C29.3529 4.75761 29.296 5.03747 29.1822 5.20539Z" transform="translate(22.0185 35.8916)" fill="white"/>
<path d="M10.3532 1.70813e-06H13.3112L15.5866 2.63068L17.9189 1.70813e-06H20.8201L14.5627 6.88454H11.7184L14.2214 4.08595L10.3532 1.70813e-06ZM8.47659e-10 1.70813e-06H8.76036V1.73513H5.57477V6.88454H3.24247V1.73513H8.47659e-10V1.70813e-06Z" transform="translate(0.0607491 36.0035)" fill="white"/>
<path d="M55.4672 30.6302C64.3413 30.6302 64.3982 30.6862 63.3743 23.186L60.8713 4.43538C60.2456 -0.0423706 58.5959 -0.602089 54.6139 0.461376L9.44685 13.055C6.77324 13.7827 6.71635 13.6707 7.11455 16.4134L8.13849 23.9136C8.30914 25.4808 8.4798 25.8726 6.88701 25.8726H3.53077C1.93797 25.8726 2.50683 25.4248 1.71043 20.6113C1.65355 20.1075 2.16551 19.7157 3.13257 19.2679C3.92896 18.8202 4.66847 18.3724 6.26127 17.4768L1.48289 18.7642C0.231409 19.044 -0.166789 19.4358 0.0607529 20.9471L0.686493 25.8726C0.857149 27.16 1.25535 27.7197 2.73437 27.7197C3.70142 27.7757 5.69241 27.7197 7.45586 27.7757C10.9259 27.8316 10.9259 27.104 10.5846 24.6412L9.56062 16.9731C9.33308 15.6857 8.99177 15.0141 11.1534 14.5103L51.5421 5.16301C56.036 4.04358 56.6618 4.04358 57.1169 7.34592L59.2216 22.4024C59.8474 27.2719 58.8803 27.7197 55.6947 27.9436L19.1174 30.5183L55.4672 30.6302Z" fill="white"/>
</svg>
